<?xml version="1.0" standalone="no"?>
<!DOCTYPE svg PUBLIC "-//W3C//DTD SVG 20010904//EN"
 "http://www.w3.org/TR/2001/REC-SVG-20010904/DTD/svg10.dtd">
<svg version="1.0" xmlns="http://www.w3.org/2000/svg"
 width="512.000000pt" height="512.000000pt" viewBox="0 0 512.000000 512.000000"
 preserveAspectRatio="xMidYMid meet">
<metadata>
Created by potrace 1.14, written by Peter Selinger 2001-2017
</metadata>
<g transform="translate(0.000000,512.000000) scale(0.100000,-0.100000)"
fill="#000000" stroke="none">
<path d="M2135 3580 c-27 -4 -75 -11 -105 -14 -30 -4 -71 -9 -90 -11 -139 -17
-284 -35 -335 -40 -32 -4 -66 -8 -75 -10 -9 -2 -45 -6 -80 -10 -36 -3 -77 -8
-93 -10 -15 -2 -55 -6 -90 -10 -34 -4 -69 -8 -77 -10 -8 -1 -44 -6 -80 -10
-36 -4 -72 -9 -80 -10 -8 -2 -49 -6 -90 -10 -41 -4 -82 -8 -90 -10 -8 -1 -44
-6 -80 -10 -36 -4 -74 -9 -85 -11 -26 -5 -82 -11 -170 -19 -38 -4 -72 -8 -75
-10 -3 -2 -36 -6 -75 -9 -98 -9 -128 -21 -169 -66 -75 -83 -111 -199 -115
-369 -3 -126 17 -219 71 -328 l21 -43 -28 -57 c-49 -101 -65 -183 -62 -323 3
-107 7 -137 31 -205 16 -44 34 -88 41 -99 12 -16 10 -24 -17 -60 -94 -129
-139 -320 -133 -566 4 -159 7 -180 36 -290 30 -110 75 -197 131 -252 52 -50
82 -62 183 -73 67 -6 123 -13 175 -20 19 -3 55 -8 80 -10 25 -3 61 -7 80 -10
19 -2 60 -7 90 -10 30 -3 91 -10 135 -16 114 -14 144 -17 200 -23 75 -8 225
-26 265 -31 37 -5 86 -11 160 -19 80 -9 144 -17 175 -21 17 -2 57 -7 90 -10
33 -3 71 -7 85 -10 14 -2 52 -7 85 -10 33 -3 74 -8 90 -10 53 -7 279 -35 325
-40 76 -8 131 -14 230 -26 125 -14 139 -16 245 -30 137 -17 210 -18 325 -3 58
7 125 16 150 19 79 10 124 15 160 20 19 2 60 7 90 10 30 4 63 8 73 11 16 5 17
-7 17 -163 0 -114 4 -176 13 -193 15 -30 68 -47 100 -33 19 9 96 125 179 271
14 25 30 47 35 49 4 1 46 -50 93 -113 47 -64 93 -120 102 -125 26 -14 61 -10
88 11 25 19 25 21 30 197 5 169 6 178 25 179 28 2 178 20 235 29 14 2 55 6 92
10 37 3 75 8 86 10 10 2 45 6 77 9 32 4 72 9 89 11 17 2 54 7 81 10 71 8 81
13 100 41 33 51 -4 124 -61 124 -46 0 -99 90 -135 230 -24 88 -33 307 -18 415
24 170 98 315 162 315 27 0 67 48 67 82 0 33 -39 78 -68 78 -43 0 -83 120 -88
260 -5 157 33 281 92 300 37 13 64 48 64 85 0 31 -41 75 -69 75 -28 0 -68 87
-82 180 -26 173 20 369 92 385 41 9 66 69 46 111 -16 36 -35 42 -192 59 -27 3
-84 10 -125 15 -41 5 -100 12 -130 15 -30 3 -66 8 -80 10 -14 2 -54 6 -90 10
-36 4 -76 8 -90 10 -57 9 -108 15 -160 20 -30 3 -107 12 -170 20 -63 8 -140
17 -170 20 -30 3 -71 7 -90 10 -19 2 -60 7 -90 10 -30 4 -66 8 -80 10 -23 4
-53 7 -180 21 -25 2 -56 6 -70 9 -14 2 -53 7 -87 10 -34 3 -72 8 -84 10 -13 3
-53 7 -89 10 -36 3 -76 8 -90 10 -14 3 -47 7 -75 10 -27 3 -66 8 -85 10 -19 2
-62 7 -95 11 -33 3 -67 8 -75 9 -8 2 -46 6 -85 10 -38 4 -79 10 -90 12 -37 8
-350 11 -400 3z m360 -160 c28 -4 77 -10 110 -14 33 -3 78 -8 100 -11 22 -3
60 -7 85 -10 25 -3 61 -7 80 -10 19 -2 56 -7 83 -10 81 -9 139 -16 217 -25 41
-5 98 -12 125 -15 118 -13 148 -17 295 -35 85 -11 180 -22 210 -25 52 -5 166
-19 255 -30 22 -2 87 -10 145 -16 106 -12 153 -28 89 -30 -18 -1 -43 -3 -54
-4 -82 -11 -163 -21 -250 -30 -27 -3 -84 -10 -125 -15 -41 -5 -95 -12 -120
-15 -25 -3 -61 -7 -80 -10 -97 -12 -201 -25 -255 -30 -33 -4 -71 -8 -85 -10
-14 -2 -50 -7 -80 -10 -30 -3 -68 -8 -85 -11 -57 -10 -150 -12 -210 -3 -56 8
-80 10 -210 25 -27 3 -61 7 -75 9 -14 2 -47 7 -75 10 -27 3 -66 7 -85 10 -19
2 -60 7 -90 10 -30 4 -66 8 -80 10 -14 2 -52 7 -85 10 -33 3 -73 8 -90 10 -16
2 -73 9 -125 15 -52 6 -111 13 -130 15 -19 3 -57 7 -85 10 -27 3 -66 8 -85 10
-19 3 -57 8 -85 11 -27 3 -63 7 -80 9 -16 2 -57 6 -90 10 -33 3 -71 8 -85 10
-14 3 -50 7 -80 10 -30 4 -68 8 -85 10 -16 2 -59 7 -95 10 -77 8 -114 24 -60
26 19 1 44 3 55 4 11 2 40 6 65 9 25 3 65 7 90 10 25 3 68 8 95 11 28 3 61 8
75 10 14 2 50 7 80 10 30 3 72 8 93 10 20 3 54 7 75 10 20 2 61 7 91 10 30 4
61 8 70 10 9 1 50 6 91 10 41 3 82 8 90 10 8 2 44 7 80 10 36 4 67 8 69 10 6
7 256 3 306 -5z m-2045 -235 c14 -2 52 -7 85 -11 33 -3 62 -8 64 -10 2 -2 -4
-37 -14 -76 -29 -116 -29 -339 0 -456 6 -23 4 -24 -37 -18 -24 3 -72 8 -108
12 -36 4 -72 8 -80 10 -8 1 -23 3 -32 3 -24 1 -65 94 -78 175 -20 127 -3 268
42 348 l22 38 55 -5 c31 -3 67 -8 81 -10z m500 -60 c36 -3 79 -8 95 -10 17 -2
73 -9 125 -15 52 -6 111 -13 130 -15 19 -3 58 -7 85 -10 28 -3 66 -7 85 -10
19 -3 60 -7 90 -10 30 -4 66 -8 80 -10 14 -2 50 -7 80 -10 91 -9 144 -16 170
-20 14 -2 50 -7 80 -10 30 -3 71 -8 90 -10 103 -13 291 -35 335 -40 28 -3 64
-7 80 -9 17 -2 59 -7 95 -11 36 -4 76 -8 90 -10 14 -2 50 -7 80 -11 30 -3 64
-7 75 -9 11 -1 26 -3 32 -4 10 -1 9 -10 -2 -38 -52 -134 -57 -356 -10 -503 5
-15 -1 -16 -50 -9 -30 4 -83 10 -118 13 -34 4 -72 8 -82 10 -11 2 -51 7 -90
10 -38 4 -81 9 -95 11 -14 3 -45 6 -70 9 -25 3 -67 7 -95 11 -116 14 -203 25
-255 30 -51 5 -114 13 -260 31 -30 4 -68 8 -85 10 -16 1 -91 10 -165 18 -74 9
-155 19 -180 22 -101 12 -172 23 -178 29 -17 17 -30 154 -27 286 3 165 -3 185
-65 195 -48 8 -79 -18 -91 -76 -9 -51 -5 -308 6 -359 l8 -33 -69 7 c-113 11
-110 9 -131 83 -25 94 -25 322 1 407 24 82 27 83 88 74 29 -4 82 -10 118 -14z
m3873 -91 c-13 -45 -17 -92 -17 -199 1 -122 4 -150 26 -217 l25 -77 -36 -5
c-20 -3 -56 -8 -81 -11 -25 -3 -63 -8 -85 -10 -54 -8 -137 -18 -245 -31 -30
-3 -65 -7 -78 -9 -12 -2 -50 -6 -85 -10 -34 -3 -73 -8 -87 -10 -14 -3 -50 -7
-80 -10 -30 -3 -125 -14 -210 -25 -85 -11 -177 -22 -205 -25 -27 -3 -66 -7
-85 -10 -19 -2 -98 -11 -175 -20 -77 -9 -151 -18 -165 -20 -14 -2 -52 -7 -85
-10 -33 -4 -71 -8 -85 -10 -32 -5 -43 2 -64 42 -64 125 -55 403 17 495 7 10
34 19 67 23 54 6 180 21 250 30 19 3 53 7 75 10 22 2 63 7 90 10 28 3 68 8 90
11 22 2 51 7 65 9 14 2 54 7 90 10 36 4 76 8 90 10 42 6 112 14 165 20 28 3
106 12 175 21 164 20 185 22 250 29 30 3 66 8 80 10 14 2 50 7 80 10 30 3 66
8 80 10 14 2 54 7 90 11 36 3 67 8 69 10 12 12 10 -10 -6 -62z m-4383 -569
c30 -3 71 -8 90 -10 19 -3 60 -7 90 -10 30 -3 66 -8 80 -10 43 -6 123 -16 170
-21 25 -2 61 -6 80 -9 47 -6 104 -13 165 -20 135 -15 197 -22 260 -30 17 -3
53 -7 80 -10 55 -6 200 -23 255 -30 19 -2 60 -7 90 -10 30 -3 71 -7 90 -10 49
-6 106 -13 170 -20 62 -6 105 -12 170 -21 25 -4 53 -6 63 -6 12 1 16 -4 13
-16 -34 -116 -40 -157 -40 -287 -1 -77 3 -166 7 -197 l8 -57 -53 5 c-101 8
-102 9 -130 119 -13 52 -17 247 -6 326 5 38 3 51 -13 68 -45 48 -110 35 -136
-27 -26 -59 -24 -292 3 -421 l7 -33 -54 6 c-30 3 -88 10 -129 16 -41 5 -95 11
-120 14 -25 3 -101 12 -170 20 -69 8 -147 18 -175 21 -55 6 -200 23 -255 30
-19 2 -60 7 -90 10 -30 3 -109 12 -175 20 -66 9 -138 17 -160 20 -92 10 -241
27 -260 30 -11 2 -27 4 -36 4 -8 1 -25 19 -38 41 -66 118 -65 357 4 489 14 29
19 31 53 27 20 -3 62 -8 92 -11z m4383 -156 c-13 -47 -17 -99 -17 -199 1 -130
10 -181 48 -272 8 -18 -7 -23 -104 -33 -59 -6 -83 -9 -205 -24 -44 -6 -102
-13 -130 -16 -62 -7 -130 -15 -172 -20 -17 -3 -73 -9 -125 -15 -51 -6 -109
-12 -128 -15 -87 -11 -241 -30 -335 -40 -27 -3 -61 -8 -75 -10 -14 -2 -70 -9
-125 -15 -55 -6 -111 -13 -125 -15 -33 -5 -115 -14 -170 -20 -25 -2 -61 -7
-81 -10 -31 -6 -39 -3 -58 21 -72 92 -78 363 -10 496 11 21 25 38 32 39 19 0
92 9 212 24 61 8 135 17 165 20 30 3 66 8 80 10 14 2 57 7 95 11 39 3 72 8 75
9 3 2 41 6 85 10 44 4 87 9 96 10 9 2 40 6 70 10 30 3 70 8 89 10 19 3 96 12
170 20 74 9 145 18 158 20 13 2 53 7 90 10 37 4 74 8 82 10 8 2 44 7 80 10 36
4 106 12 155 19 50 7 91 12 93 11 1 -1 -6 -31 -15 -66z m-2173 -103 c30 -4 73
-9 95 -12 68 -9 100 -13 107 -13 4 -1 1 -18 -7 -38 -53 -136 -57 -337 -10
-499 6 -20 4 -20 -57 -13 -35 4 -88 10 -118 14 -30 3 -66 8 -80 10 -14 2 -47
6 -75 10 -58 7 -53 4 -59 35 -2 14 -9 44 -14 68 -17 72 -12 273 8 344 34 121
30 116 97 107 32 -4 83 -10 113 -13z m-2192 -462 c35 -5 42 -10 37 -23 -17
-40 -56 -158 -60 -181 -28 -146 -33 -203 -30 -360 3 -109 10 -183 25 -250 11
-52 23 -108 27 -124 4 -17 2 -27 -3 -23 -6 3 -41 8 -79 12 -83 7 -104 23 -142
105 -52 113 -66 191 -66 370 -1 222 32 366 104 453 35 42 32 42 187 21z m316
-39 c21 -2 40 -6 43 -8 2 -2 -4 -21 -13 -43 -59 -140 -84 -300 -80 -510 2 -89
6 -166 9 -170 2 -5 7 -31 11 -59 3 -27 13 -72 21 -99 8 -27 15 -54 15 -59 0
-10 -112 -3 -130 8 -11 7 -45 110 -67 205 -19 82 -24 373 -9 465 10 57 45 169
76 237 20 45 23 47 53 43 18 -3 49 -7 71 -10z m346 -40 c30 -3 93 -11 140 -17
47 -6 101 -12 120 -14 19 -1 51 -5 70 -8 19 -2 62 -7 95 -11 33 -3 76 -8 95
-10 78 -11 111 -15 245 -30 156 -18 186 -22 191 -28 3 -2 -7 -44 -20 -93 -46
-163 -55 -235 -51 -429 3 -175 14 -252 61 -414 4 -14 3 -22 -2 -19 -5 3 -37 9
-70 12 -34 3 -77 8 -95 10 -107 14 -135 18 -168 21 -79 8 -128 14 -171 19 -42
5 -164 20 -270 32 -25 3 -76 9 -115 14 -38 5 -96 12 -128 15 -32 3 -65 9 -72
11 -8 3 -23 33 -34 67 -43 131 -53 200 -57 367 -4 213 13 306 83 463 26 57 26
57 62 53 20 -3 61 -8 91 -11z m3671 -58 c-75 -175 -91 -475 -37 -702 8 -36 44
-131 60 -164 9 -17 14 -35 12 -40 -3 -5 -36 -12 -73 -16 -38 -3 -81 -8 -98
-10 -79 -11 -196 -25 -250 -31 -33 -3 -64 -7 -70 -8 -6 0 -11 87 -13 242 -1
135 1 241 6 238 16 -10 81 15 97 37 33 47 7 111 -50 121 -16 3 -63 1 -104 -5
-103 -13 -120 -15 -321 -39 -313 -37 -322 -39 -347 -63 -29 -26 -31 -79 -3
-107 19 -19 26 -22 60 -24 13 -1 15 -35 15 -240 0 -231 -1 -239 -20 -242 -51
-6 -196 -24 -245 -29 -30 -3 -66 -8 -80 -10 -14 -2 -54 -7 -90 -11 -36 -3 -73
-8 -82 -9 -9 -2 -43 -6 -76 -10 -58 -6 -60 -5 -87 27 -68 80 -105 221 -110
413 -6 206 31 378 99 468 l32 42 129 17 c71 9 156 19 190 23 33 4 71 8 85 10
14 2 50 6 80 9 30 4 66 9 80 11 14 2 54 6 90 10 36 3 76 8 90 10 14 3 50 7 80
10 30 3 69 8 85 10 51 6 118 14 170 20 28 3 66 8 85 10 19 3 55 7 80 10 25 3
61 8 80 10 19 2 58 7 85 10 28 4 111 14 185 23 74 9 149 18 167 19 l32 3 -18
-43z m-2399 -95 c4 -4 -4 -45 -18 -92 -43 -147 -54 -240 -49 -425 4 -187 5
-198 41 -333 13 -52 24 -96 24 -99 0 -3 -19 -2 -42 1 -24 3 -53 5 -65 5 -25 1
-40 29 -74 136 -36 114 -46 188 -47 345 0 176 15 272 60 398 l31 84 66 -7 c36
-4 69 -10 73 -13z m253 -26 c28 -3 79 -9 115 -12 36 -4 67 -8 69 -10 3 -2 -7
-30 -22 -62 -65 -144 -86 -256 -83 -456 3 -168 24 -294 68 -395 l18 -44 -57 7
c-139 16 -159 19 -170 28 -18 15 -72 174 -87 257 -23 127 -19 353 9 489 16 82
65 211 78 207 7 -2 35 -6 62 -9z m1515 -736 c0 -187 -2 -340 -4 -340 -2 0 -27
32 -56 70 -84 114 -125 110 -202 -17 l-53 -86 -3 333 c-1 184 1 337 5 341 5 4
37 11 73 14 36 3 90 10 120 14 30 5 70 9 88 10 l32 1 0 -340z"/>
</g>
</svg>
